<svg width="21" height="20" viewBox="0 0 21 20" fill="none" xmlns="http://www.w3.org/2000/svg">
<path id="Path" d="M19.3958 0H1.60417C0.994167 0 0.5 0.494167 0.5 1.10417V18.8967C0.5 19.5058 0.994167 20 1.60417 20H11.1833V12.255H8.57667V9.23667H11.1833V7.01083C11.1833 4.4275 12.7608 3.02083 15.0658 3.02083C16.17 3.02083 17.1183 3.10333 17.395 3.14V5.84L15.7967 5.84083C14.5433 5.84083 14.3008 6.43667 14.3008 7.31V9.2375H17.29L16.9008 12.2558H14.3008V20H19.3975C20.0058 20 20.5 19.5058 20.5 18.8958V1.10417C20.5 0.494167 20.0058 0 19.3958 0Z" fill="#2C7566"/>
</svg>
