<svg width="21" height="20" viewBox="0 0 21 20" fill="none" xmlns="http://www.w3.org/2000/svg">
<path id="Path" d="M10.5 0C4.9775 0 0.5 4.47667 0.5 10C0.5 14.2367 3.13583 17.855 6.85583 19.3117C6.76833 18.5208 6.68917 17.3075 6.89083 16.4442C7.0725 15.6633 8.06333 11.4733 8.06333 11.4733C8.06333 11.4733 7.76417 10.8742 7.76417 9.98833C7.76417 8.59833 8.57 7.56 9.57333 7.56C10.4258 7.56 10.8383 8.20083 10.8383 8.96833C10.8383 9.82583 10.2925 11.1083 10.01 12.2975C9.77417 13.2925 10.5092 14.105 11.4908 14.105C13.2683 14.105 14.6342 12.2308 14.6342 9.52583C14.6342 7.13167 12.9142 5.4575 10.4575 5.4575C7.6125 5.4575 5.9425 7.59167 5.9425 9.79667C5.9425 10.6558 6.27333 11.5783 6.68667 12.0783C6.76833 12.1775 6.78 12.265 6.75583 12.3658L6.47833 13.4992C6.43417 13.6825 6.33333 13.7217 6.14333 13.6333C4.89417 13.0517 4.11333 11.2258 4.11333 9.75917C4.11333 6.605 6.405 3.7075 10.7208 3.7075C14.19 3.7075 16.8858 6.18 16.8858 9.48333C16.8858 12.93 14.7133 15.7033 11.6967 15.7033C10.6833 15.7033 9.73083 15.1775 9.405 14.555L8.78167 16.9325C8.55583 17.8017 7.94667 18.8908 7.53833 19.5542C8.475 19.8433 9.46917 20 10.5 20C16.0225 20 20.5 15.5225 20.5 10C20.5 4.47667 16.0225 0 10.5 0Z" fill="#2C7566"/>
</svg>
