<svg width="21" height="17" viewBox="0 0 21 17" fill="none" xmlns="http://www.w3.org/2000/svg">
<path id="Path" d="M20.5 2.17221C19.7642 2.49888 18.9733 2.71888 18.1433 2.81805C18.9908 2.31055 19.6417 1.50638 19.9475 0.548047C19.155 1.01805 18.2767 1.35971 17.3417 1.54388C16.5942 0.74638 15.5267 0.248047 14.3467 0.248047C11.6975 0.248047 9.75083 2.71971 10.3492 5.28555C6.94 5.11471 3.91667 3.48138 1.8925 0.99888C0.8175 2.84305 1.335 5.25555 3.16167 6.47721C2.49 6.45555 1.85667 6.27138 1.30417 5.96388C1.25917 7.86471 2.62167 9.64305 4.595 10.0389C4.0175 10.1955 3.385 10.2322 2.74167 10.1089C3.26333 11.7389 4.77833 12.9247 6.575 12.958C4.85 14.3105 2.67667 14.9147 0.5 14.658C2.31583 15.8222 4.47333 16.5014 6.79 16.5014C14.4083 16.5014 18.7125 10.0672 18.4525 4.29638C19.2542 3.71721 19.95 2.99471 20.5 2.17221Z" fill="#2C7566"/>
</svg>
